<?xml version="1.0" encoding="UTF-8"?>
<!DOCTYPE svg PUBLIC "-//W3C//DTD SVG 1.1//EN" "http://www.w3.org/Graphics/SVG/1.1/DTD/svg11.dtd">
<!-- Creator: CorelDRAW 2018 (64-Bit) -->
<svg xmlns="http://www.w3.org/2000/svg" xml:space="preserve" width="95px" height="545px" version="1.1" style="shape-rendering:geometricPrecision; text-rendering:geometricPrecision; image-rendering:optimizeQuality; fill-rule:evenodd; clip-rule:evenodd"
viewBox="0 0 94.7 545.69"
 xmlns:xlink="http://www.w3.org/1999/xlink">
 <defs>
  <style type="text/css">
   <![CDATA[
    .fil0 {fill:#3B8056}
   ]]>
  </style>
 </defs>
 <g id="Слой_x0020_1">
  <metadata id="CorelCorpID_0Corel-Layer"/>
  <path class="fil0" d="M83.06 0l-8.54 388.11 -59 0 -8.53 -388.11 76.07 0zm-34.93 545.69c-13.46,0 -24.84,-4.66 -34.16,-13.97 -9.31,-9.32 -13.97,-20.7 -13.97,-34.16 0,-13.45 4.66,-24.84 13.97,-34.15 9.32,-9.32 20.7,-13.97 34.16,-13.97 12.93,0 23.8,4.65 32.6,13.97 9.31,9.31 13.97,20.7 13.97,34.15 0,13.46 -4.66,24.84 -13.97,34.16 -8.8,9.31 -19.67,13.97 -32.6,13.97z"/>
 </g>
</svg>
